# xmcd
#
# Track frame offsets: 
#        150
#        16352
#        34674
#        54957
#        76081
#        94280
#        110449
#        132460
#        142387
#        165311
#        182207
#
# Disc length: 2691 seconds
#
# Revision: 0
# Processed by: cddbd v1.5.2PL0 Copyright (c) Steve Scherf et al.
# Submitted via: ExactAudioCopy v1.0b1
#
DISCID=8f0a810b
DTITLE=Bluestown Kings - Message to the people
DYEAR=2014
DGENRE=Blues
TTITLE0=Love In Vain
TTITLE1=Got You On My Mind
TTITLE2=Poor Black Mattie
TTITLE3=Breakfast in Memphis
TTITLE4=The Blues Never Die
TTITLE5=Need My Baby
TTITLE6=Be My Woman
TTITLE7=Clickety Clack
TTITLE8=Last Night
TTITLE9=Catfish Blues
TTITLE10=Move On
EXTD=
EXTT0=
EXTT1=
EXTT2=
EXTT3=
EXTT4=
EXTT5=
EXTT6=
EXTT7=
EXTT8=
EXTT9=
EXTT10=
PLAYORDER=
